<svg xmlns="http://www.w3.org/2000/svg" width="500" height="500" viewBox="0 0 500 500" version="1.1">
	<path d="M 188 149.500 C 188 191.506, 188.336 212, 189.025 212 C 191.661 212, 192 204.580, 192 146.935 C 192 87.667, 191.978 87, 190 87 C 188.021 87, 188 87.667, 188 149.500 M 196 144.122 C 196 194.785, 196.170 201.104, 197.500 200 C 198.801 198.921, 199 191.327, 199 142.878 C 199 93.875, 198.815 87, 197.500 87 C 196.184 87, 196 94.014, 196 144.122 M 203 141.573 C 203 193.010, 203.101 196.127, 204.750 195.810 C 206.387 195.495, 206.517 191.977, 206.759 141.236 C 207.015 87.503, 206.999 87, 205.009 87 C 203.022 87, 203 87.589, 203 141.573 M 211 141 C 211 188.333, 211.185 195, 212.500 195 C 213.815 195, 214 188.333, 214 141 C 214 93.667, 213.815 87, 212.500 87 C 211.185 87, 211 93.667, 211 141 M 218 141.383 C 218 194.926, 218.031 195.775, 220 196.290 C 221.833 196.769, 222 196.320, 222 190.906 L 222 185 244.500 185 C 266.333 185, 267 184.941, 267 183 C 267 181.059, 266.333 181, 244.500 181 C 222.667 181, 222 180.941, 222 179 C 222 177.059, 222.667 177, 244.500 177 C 266.333 177, 267 176.941, 267 175 C 267 173.059, 266.333 173, 244.500 173 C 225.167 173, 222 172.789, 222 171.500 C 222 170.211, 225.167 170, 244.500 170 C 266.333 170, 267 169.941, 267 168 C 267 166.059, 266.333 166, 244.500 166 C 222.667 166, 222 165.941, 222 164 C 222 162.059, 222.667 162, 244.500 162 C 266.333 162, 267 161.941, 267 160 C 267 158.059, 266.333 158, 244.500 158 C 225.167 158, 222 157.789, 222 156.500 C 222 155.211, 225.167 155, 244.500 155 C 266.333 155, 267 154.941, 267 153 C 267 151.059, 266.333 151, 244.500 151 L 222 151 222 135.500 L 222 120 252.500 120 C 278.944 120, 283 119.801, 283 118.500 C 283 117.199, 278.944 117, 252.500 117 C 222.742 117, 222 116.952, 222 115.015 C 222 113.084, 222.830 113.022, 252.237 112.765 C 280.117 112.521, 282.500 112.364, 282.810 110.750 C 283.125 109.114, 281.152 109, 252.573 109 C 222.667 109, 222 108.956, 222 107 C 222 105.044, 222.667 105, 252.500 105 C 278.944 105, 283 104.801, 283 103.500 C 283 102.199, 278.944 102, 252.500 102 C 222.742 102, 222 101.952, 222 100.015 C 222 98.084, 222.830 98.022, 252.237 97.765 C 280.117 97.521, 282.500 97.364, 282.810 95.750 C 283.125 94.114, 281.152 94, 252.573 94 C 222.667 94, 222 93.956, 222 92 C 222 90.044, 222.667 90, 252.500 90 C 278.944 90, 283 89.801, 283 88.500 C 283 87.197, 278.722 87, 250.500 87 L 218 87 218 141.383 M 294 141.573 C 294 193.010, 294.101 196.127, 295.750 195.810 C 297.387 195.495, 297.517 191.977, 297.759 141.236 C 298.015 87.503, 297.999 87, 296.009 87 C 294.022 87, 294 87.589, 294 141.573 M 302 141 C 302 188.333, 302.185 195, 303.500 195 C 304.815 195, 305 188.333, 305 141 C 305 93.667, 304.815 87, 303.500 87 C 302.185 87, 302 93.667, 302 141 M 309 141 C 309 194.333, 309.025 195, 311 195 C 312.975 195, 313 194.333, 313 141 C 313 87.667, 312.975 87, 311 87 C 309.025 87, 309 87.667, 309 141 M 317 141 C 317 188.333, 317.185 195, 318.500 195 C 319.815 195, 320 188.333, 320 141 C 320 93.667, 319.815 87, 318.500 87 C 317.185 87, 317 93.667, 317 141 M 324 141 C 324 194.333, 324.025 195, 326 195 C 327.975 195, 328 194.333, 328 141 C 328 87.667, 327.975 87, 326 87 C 324.025 87, 324 87.667, 324 141 M 188.675 297.405 C 188.304 298.372, 188 309.027, 188 321.082 C 188 339.898, 188.212 343, 189.500 343 C 190.790 343, 190.990 339.948, 190.930 321.250 C 190.862 300.176, 190.219 293.381, 188.675 297.405 M 195 325.378 C 195 340.375, 195.223 343, 196.500 343 C 197.772 343, 198 340.514, 198 326.622 C 198 313.285, 197.722 310.014, 196.500 309 C 195.176 307.901, 195 309.827, 195 325.378 M 202 327.965 C 202 342.333, 202.089 343, 204 343 C 205.905 343, 206 342.333, 206 329.035 C 206 316.094, 205.853 314.992, 204 314 C 202.041 312.952, 202 313.240, 202 327.965 M 209 329 C 209 342.333, 209.095 343, 211 343 C 212.905 343, 213 342.333, 213 329 C 213 315.667, 212.905 315, 211 315 C 209.095 315, 209 315.667, 209 329 M 217 329 C 217 342.333, 217.095 343, 219 343 C 220.905 343, 221 342.333, 221 329 C 221 315.667, 220.905 315, 219 315 C 217.095 315, 217 315.667, 217 329 M 299 329 C 299 340.778, 299.238 343, 300.500 343 C 301.762 343, 302 340.778, 302 329 C 302 317.222, 301.762 315, 300.500 315 C 299.238 315, 299 317.222, 299 329 M 306 329 C 306 340.778, 306.238 343, 307.500 343 C 308.762 343, 309 340.778, 309 329 C 309 317.222, 308.762 315, 307.500 315 C 306.238 315, 306 317.222, 306 329 M 313 329 C 313 342.333, 313.095 343, 315 343 C 316.905 343, 317 342.333, 317 329 C 317 315.667, 316.905 315, 315 315 C 313.095 315, 313 315.667, 313 329 M 320 329 C 320 342.333, 320.095 343, 322 343 C 323.905 343, 324 342.333, 324 329 C 324 315.667, 323.905 315, 322 315 C 320.095 315, 320 315.667, 320 329 M 328 329 C 328 342.333, 328.095 343, 330 343 C 331.905 343, 332 342.333, 332 329 C 332 315.667, 331.905 315, 330 315 C 328.095 315, 328 315.667, 328 329 M 225 332 C 225 341.111, 225.258 343, 226.500 343 C 227.742 343, 228 341.111, 228 332 C 228 322.889, 227.742 321, 226.500 321 C 225.258 321, 225 322.889, 225 332 M 232 332 C 232 341.111, 232.258 343, 233.500 343 C 234.742 343, 235 341.111, 235 332 C 235 322.889, 234.742 321, 233.500 321 C 232.258 321, 232 322.889, 232 332 M 239 332 C 239 342.333, 239.121 343, 241 343 C 242.879 343, 243 342.333, 243 332 C 243 321.667, 242.879 321, 241 321 C 239.121 321, 239 321.667, 239 332 M 246 332 C 246 342.333, 246.121 343, 248 343 C 249.879 343, 250 342.333, 250 332 C 250 321.667, 249.879 321, 248 321 C 246.121 321, 246 321.667, 246 332 M 254 332 C 254 342.333, 254.121 343, 256 343 C 257.879 343, 258 342.333, 258 332 C 258 321.667, 257.879 321, 256 321 C 254.121 321, 254 321.667, 254 332 M 262 332 C 262 341.111, 262.258 343, 263.500 343 C 264.742 343, 265 341.111, 265 332 C 265 322.889, 264.742 321, 263.500 321 C 262.258 321, 262 322.889, 262 332 M 269 332 C 269 341.111, 269.258 343, 270.500 343 C 271.742 343, 272 341.111, 272 332 C 272 322.889, 271.742 321, 270.500 321 C 269.258 321, 269 322.889, 269 332 M 276 332 C 276 342.333, 276.121 343, 278 343 C 279.879 343, 280 342.333, 280 332 C 280 321.667, 279.879 321, 278 321 C 276.121 321, 276 321.667, 276 332 M 283 332 C 283 342.333, 283.121 343, 285 343 C 286.879 343, 287 342.333, 287 332 C 287 321.667, 286.879 321, 285 321 C 283.121 321, 283 321.667, 283 332 M 291 332 C 291 342.333, 291.121 343, 293 343 C 294.879 343, 295 342.333, 295 332 C 295 321.667, 294.879 321, 293 321 C 291.121 321, 291 321.667, 291 332 M 336 332.500 C 336 341.167, 336.262 343, 337.500 343 C 338.738 343, 339 341.167, 339 332.500 C 339 323.833, 338.738 322, 337.500 322 C 336.262 322, 336 323.833, 336 332.500 M 180 333 C 180 342.333, 180.133 343, 182 343 C 183.867 343, 184 342.333, 184 333 C 184 323.667, 183.867 323, 182 323 C 180.133 323, 180 323.667, 180 333 M 342 333 C 342 342.333, 342.133 343, 344 343 C 345.867 343, 346 342.333, 346 333 C 346 323.667, 345.867 323, 344 323 C 342.133 323, 342 323.667, 342 333 M 172 333.500 C 172 342.333, 172.140 343, 174 343 C 175.860 343, 176 342.333, 176 333.500 C 176 324.667, 175.860 324, 174 324 C 172.140 324, 172 324.667, 172 333.500 M 350 333.500 C 350 342.333, 350.140 343, 352 343 C 353.860 343, 354 342.333, 354 333.500 C 354 324.667, 353.860 324, 352 324 C 350.140 324, 350 324.667, 350 333.500 M 165 334 C 165 342.333, 165.148 343, 167 343 C 168.852 343, 169 342.333, 169 334 C 169 325.667, 168.852 325, 167 325 C 165.148 325, 165 325.667, 165 334 M 357 334 C 357 342.333, 357.148 343, 359 343 C 360.852 343, 361 342.333, 361 334 C 361 325.667, 360.852 325, 359 325 C 357.148 325, 357 325.667, 357 334 M 158 334.500 C 158 341.389, 158.284 343, 159.500 343 C 160.716 343, 161 341.389, 161 334.500 C 161 327.611, 160.716 326, 159.500 326 C 158.284 326, 158 327.611, 158 334.500 M 365 334.500 C 365 341.389, 365.284 343, 366.500 343 C 367.716 343, 368 341.389, 368 334.500 C 368 327.611, 367.716 326, 366.500 326 C 365.284 326, 365 327.611, 365 334.500 M 151 335 C 151 341.444, 151.292 343, 152.500 343 C 153.708 343, 154 341.444, 154 335 C 154 328.556, 153.708 327, 152.500 327 C 151.292 327, 151 328.556, 151 335 M 372 335 C 372 341.444, 372.292 343, 373.500 343 C 374.708 343, 375 341.444, 375 335 C 375 328.556, 374.708 327, 373.500 327 C 372.292 327, 372 328.556, 372 335 M 143 335.500 C 143 342.333, 143.178 343, 145 343 C 146.822 343, 147 342.333, 147 335.500 C 147 328.667, 146.822 328, 145 328 C 143.178 328, 143 328.667, 143 335.500 M 379 335.500 C 379 342.333, 379.178 343, 381 343 C 382.822 343, 383 342.333, 383 335.500 C 383 328.667, 382.822 328, 381 328 C 379.178 328, 379 328.667, 379 335.500 M 135 336 C 135 342.333, 135.190 343, 137 343 C 138.810 343, 139 342.333, 139 336 C 139 329.667, 138.810 329, 137 329 C 135.190 329, 135 329.667, 135 336 M 387 336 C 387 342.333, 387.190 343, 389 343 C 390.810 343, 391 342.333, 391 336 C 391 329.667, 390.810 329, 389 329 C 387.190 329, 387 329.667, 387 336 M 128 336.500 C 128 342.333, 128.205 343, 130 343 C 131.795 343, 132 342.333, 132 336.500 C 132 330.667, 131.795 330, 130 330 C 128.205 330, 128 330.667, 128 336.500 M 394 336.500 C 394 342.333, 394.205 343, 396 343 C 397.795 343, 398 342.333, 398 336.500 C 398 330.667, 397.795 330, 396 330 C 394.205 330, 394 330.667, 394 336.500 M 121 337 C 121 341.667, 121.333 343, 122.500 343 C 123.667 343, 124 341.667, 124 337 C 124 332.333, 123.667 331, 122.500 331 C 121.333 331, 121 332.333, 121 337 M 402 337 C 402 341.667, 402.333 343, 403.500 343 C 404.667 343, 405 341.667, 405 337 C 405 332.333, 404.667 331, 403.500 331 C 402.333 331, 402 332.333, 402 337 M 113 337.500 C 113 342.333, 113.242 343, 115 343 C 116.758 343, 117 342.333, 117 337.500 C 117 332.667, 116.758 332, 115 332 C 113.242 332, 113 332.667, 113 337.500 M 409 337.500 C 409 342.333, 409.242 343, 411 343 C 412.758 343, 413 342.333, 413 337.500 C 413 332.667, 412.758 332, 411 332 C 409.242 332, 409 332.667, 409 337.500 M 106 338 C 106 342.333, 106.267 343, 108 343 C 109.733 343, 110 342.333, 110 338 C 110 333.667, 109.733 333, 108 333 C 106.267 333, 106 333.667, 106 338 M 416 338 C 416 342.333, 416.267 343, 418 343 C 419.733 343, 420 342.333, 420 338 C 420 333.667, 419.733 333, 418 333 C 416.267 333, 416 333.667, 416 338 M 99 338.500 C 99 342.333, 99.296 343, 101 343 C 102.704 343, 103 342.333, 103 338.500 C 103 334.667, 102.704 334, 101 334 C 99.296 334, 99 334.667, 99 338.500 M 423 338.500 C 423 342.333, 423.296 343, 425 343 C 426.704 343, 427 342.333, 427 338.500 C 427 334.667, 426.704 334, 425 334 C 423.296 334, 423 334.667, 423 338.500 M 92 339 C 92 342.333, 92.333 343, 94 343 C 95.667 343, 96 342.333, 96 339 C 96 335.667, 95.667 335, 94 335 C 92.333 335, 92 335.667, 92 339 M 430 339 C 430 342.333, 430.333 343, 432 343 C 433.667 343, 434 342.333, 434 339 C 434 335.667, 433.667 335, 432 335 C 430.333 335, 430 335.667, 430 339 M 85 339.500 C 85 342.333, 85.381 343, 87 343 C 88.619 343, 89 342.333, 89 339.500 C 89 336.667, 88.619 336, 87 336 C 85.381 336, 85 336.667, 85 339.500 M 437 339.500 C 437 342.333, 437.381 343, 439 343 C 440.619 343, 441 342.333, 441 339.500 C 441 336.667, 440.619 336, 439 336 C 437.381 336, 437 336.667, 437 339.500 M 78 340 C 78 342.333, 78.444 343, 80 343 C 81.556 343, 82 342.333, 82 340 C 82 337.667, 81.556 337, 80 337 C 78.444 337, 78 337.667, 78 340 M 444 340 C 444 342.333, 444.444 343, 446 343 C 447.556 343, 448 342.333, 448 340 C 448 337.667, 447.556 337, 446 337 C 444.444 337, 444 337.667, 444 340" stroke="none" fill="black" fill-rule="evenodd"/>
</svg>